<svg xmlns="http://www.w3.org/2000/svg" viewBox="0 0 64 64" style="enable-background:new 0 0 64 64" xml:space="preserve"><path d="M6 12c0-3.3 2.7-6 6-6h40c3.3 0 6 2.7 6 6v40c0 3.3-2.7 6-6 6H12c-3.3 0-6-2.7-6-6V12z" style="fill:#fff"/><path d="M32 32V20h12v12H32zm0 0H20v12H8v2c0 2.8 5.1 5.1 12 5.8V44h12v7.4c4.4-.7 8.5-2 12-3.8V44H32V32zm-12 0V20H8v12h12zM12 4c-4.4 0-8 3.6-8 8v40c0 4.4 3.6 8 8 8h32v-2h8c3.3 0 6-2.7 6-6V32h-2c0 4.5-2.4 8.7-6.4 12H44V32h12V20H44V8H32v12H20V4h-8z" style="fill-rule:evenodd;clip-rule:evenodd;fill:#acbdc5"/><path d="M60 12v40c0 4.4-3.6 8-8 8h-8v-4h8c2.2 0 4-1.8 4-4V12c0-2.2-1.8-4-4-4H20V4h32c4.4 0 8 3.6 8 8zM14 42c2.2 0 4-1.8 4-4s-1.8-4-4-4-4 1.8-4 4 1.8 4 4 4zm12 12c2.2 0 4-1.8 4-4s-1.8-4-4-4-4 1.8-4 4 1.8 4 4 4zm12-20c-2.2 0-4 1.8-4 4s1.8 4 4 4 4-1.8 4-4-1.8-4-4-4zm12 20c2.2 0 4-1.8 4-4s-1.8-4-4-4-4 1.8-4 4 1.8 4 4 4z" style="fill:#314a52"/><path d="M18 14c0 2.2-1.8 4-4 4s-4-1.8-4-4 1.8-4 4-4 4 1.8 4 4zm8 8c-2.2 0-4 1.8-4 4s1.8 4 4 4 4-1.8 4-4-1.8-4-4-4zm12-12c-2.2 0-4 1.8-4 4s1.8 4 4 4 4-1.8 4-4-1.8-4-4-4zm12 12c-2.2 0-4 1.8-4 4s1.8 4 4 4 4-1.8 4-4-1.8-4-4-4z" style="fill:#ff6c58"/></svg>