<svg xmlns="http://www.w3.org/2000/svg" viewBox="0 0 48 48"><path d="M27 30a3 3 0 0 1-3 3h-2v9H12v-2a3 3 0 0 0-6 0v2H1v-9c1.9 0 3 .2 4.12-.88A3 3 0 0 0 3 27H1v-5h5v-2a3 3 0 0 1 5.12-2.12C12.19 19 12 20 12 22h10v5h2a3 3 0 0 1 3 3z" style="fill:#db5669"/><path d="M47 30a3 3 0 0 1-3 3h-2v9h-5v2a3 3 0 0 1-5.12 2.12C30.81 45.05 31 44 31 42h-9v-9c1.9 0 3 .2 4.12-.88A3 3 0 0 0 24 27h-2v-5h9v2a3 3 0 0 0 6 0v-2h5v5h2a3 3 0 0 1 3 3z" style="fill:#fc6"/><path d="M47 9a3 3 0 0 1-3 3h-2v10h-5v2a3 3 0 0 1-5.12 2.12C30.81 25.05 31 24 31 22h-9V12c1.9 0 3 .2 4.12-.88A3 3 0 0 0 24 6h-2V1h9v2a3 3 0 0 0 6 0V1h5v5h2a3 3 0 0 1 3 3z" style="fill:#6fabe6"/><path d="M27 30a3 3 0 0 1-3 3h-2v6A26 26 0 0 1 4.26 22H6v-2a3 3 0 0 1 6 0v2h10v5h2a3 3 0 0 1 3 3z" style="fill:#f26674"/><path d="M47 30a3 3 0 0 1-3 3h-2v6a26 26 0 0 1-17.74-17H31c0 1.9-.2 3 .88 4.12A3 3 0 0 0 37 24v-2h5v5h2a3 3 0 0 1 3 3z" style="fill:#ffde76"/><path d="M47 9a3 3 0 0 1-3 3h-2v6.74A26 26 0 0 1 25 1h6c0 1.9-.2 3 .88 4.12A3 3 0 0 0 37 3V1h5v5h2a3 3 0 0 1 3 3z" style="fill:#82bcf4"/></svg>