<svg version="1.1" id="Layer_1" xmlns="http://www.w3.org/2000/svg" x="0" y="0" viewBox="0 0 256 256" style="enable-background:new 0 0 256 256" xml:space="preserve"><style>.st0{fill:#4671c6}.st3{fill:#a4c9ff}.st4{fill:#3762cc}.st5{fill:#e0ebfc}</style><path d="M193.656 8.156h-167.5c-6.627 0-12 5.373-12 12v167.5c0 6.627 5.373 12 12 12h167.5c6.627 0 12-5.373 12-12v-167.5c0-6.627-5.372-12-12-12z" style="fill:#f9cfcf"/><path class="st0" d="M189.814 190.081H29.999a6.267 6.267 0 0 1-6.267-6.267V23.999a6.267 6.267 0 0 1 6.267-6.267h159.815a6.267 6.267 0 0 1 6.267 6.267v159.815a6.267 6.267 0 0 1-6.267 6.267z"/><path class="st5" d="M58.201 17.731h34.47v34.47h-34.47z"/><path class="st0" d="M92.671 17.731h34.47v34.47h-34.47z"/><path class="st5" d="M127.141 17.731h34.47v34.47h-34.47z"/><path class="st0" d="M58.201 52.201h34.47v34.47h-34.47z"/><path class="st5" d="M92.671 52.201h34.47v34.47h-34.47z"/><path class="st0" d="M127.141 52.201h34.47v34.47h-34.47z"/><path class="st5" d="M58.201 86.671h34.47v34.47h-34.47z"/><path class="st0" d="M92.671 86.671h34.47v34.47h-34.47z"/><path class="st5" d="M127.141 86.671h34.47v34.47h-34.47z"/><path class="st0" d="M58.201 121.141h34.47v34.47h-34.47z"/><path class="st5" d="M92.671 121.141h34.47v34.47h-34.47z"/><path class="st0" d="M127.141 121.141h34.47v34.47h-34.47z"/><path class="st5" d="M58.201 155.611h34.47v34.47h-34.47z"/><path class="st0" d="M92.671 155.611h34.47v34.47h-34.47z"/><path class="st5" d="M127.141 155.611h34.47v34.47h-34.47zM161.611 52.201h34.47v34.47h-34.47z"/><path class="st0" d="M161.611 86.671h34.47v34.47h-34.47z"/><path class="st5" d="M161.611 121.141h34.47v34.47h-34.47zM23.731 52.201h34.47v34.47h-34.47z"/><path class="st0" d="M23.731 86.671h34.47v34.47h-34.47z"/><path class="st5" d="M23.731 121.141h34.47v34.47h-34.47z"/><path class="st4" d="M92.671 54.201h-34.47a2 2 0 0 1-2-2v-34.47a2 2 0 0 1 2-2h34.47a2 2 0 0 1 2 2v34.47a2 2 0 0 1-2 2zm-32.47-4h30.47v-30.47h-30.47v30.47z"/><path class="st4" d="M127.141 54.201h-34.47a2 2 0 0 1-2-2v-34.47a2 2 0 0 1 2-2h34.47a2 2 0 0 1 2 2v34.47a2 2 0 0 1-2 2zm-32.47-4h30.47v-30.47h-30.47v30.47z"/><path class="st4" d="M161.611 54.201h-34.47a2 2 0 0 1-2-2v-34.47a2 2 0 0 1 2-2h34.47a2 2 0 0 1 2 2v34.47a2 2 0 0 1-2 2zm-32.469-4h30.47v-30.47h-30.47v30.47zM92.671 88.671h-34.47a2 2 0 0 1-2-2v-34.47a2 2 0 0 1 2-2h34.47a2 2 0 0 1 2 2v34.47a2 2 0 0 1-2 2zm-32.47-4h30.47v-30.47h-30.47v30.47z"/><path class="st4" d="M127.141 88.671h-34.47a2 2 0 0 1-2-2v-34.47a2 2 0 0 1 2-2h34.47a2 2 0 0 1 2 2v34.47a2 2 0 0 1-2 2zm-32.47-4h30.47v-30.47h-30.47v30.47z"/><path class="st4" d="M161.611 88.671h-34.47a2 2 0 0 1-2-2v-34.47a2 2 0 0 1 2-2h34.47a2 2 0 0 1 2 2v34.47a2 2 0 0 1-2 2zm-32.469-4h30.47v-30.47h-30.47v30.47zM92.671 123.141h-34.47a2 2 0 0 1-2-2v-34.47a2 2 0 0 1 2-2h34.47a2 2 0 0 1 2 2v34.47a2 2 0 0 1-2 2zm-32.47-4h30.47v-30.47h-30.47v30.47z"/><path class="st4" d="M127.141 123.141h-34.47a2 2 0 0 1-2-2v-34.47a2 2 0 0 1 2-2h34.47a2 2 0 0 1 2 2v34.47a2 2 0 0 1-2 2zm-32.47-4h30.47v-30.47h-30.47v30.47z"/><path class="st4" d="M161.611 123.141h-34.47a2 2 0 0 1-2-2v-34.47a2 2 0 0 1 2-2h34.47a2 2 0 0 1 2 2v34.47a2 2 0 0 1-2 2zm-32.469-4h30.47v-30.47h-30.47v30.47zM92.671 157.611h-34.47a2 2 0 0 1-2-2v-34.47a2 2 0 0 1 2-2h34.47a2 2 0 0 1 2 2v34.47a2 2 0 0 1-2 2zm-32.47-4h30.47v-30.47h-30.47v30.47z"/><path class="st4" d="M127.141 157.611h-34.47a2 2 0 0 1-2-2v-34.47a2 2 0 0 1 2-2h34.47a2 2 0 0 1 2 2v34.47a2 2 0 0 1-2 2zm-32.47-4h30.47v-30.47h-30.47v30.47z"/><path class="st4" d="M161.611 157.611h-34.47a2 2 0 0 1-2-2v-34.47a2 2 0 0 1 2-2h34.47a2 2 0 0 1 2 2v34.47a2 2 0 0 1-2 2zm-32.469-4h30.47v-30.47h-30.47v30.47zM92.671 192.081h-34.47a2 2 0 0 1-2-2v-34.47a2 2 0 0 1 2-2h34.47a2 2 0 0 1 2 2v34.47a2 2 0 0 1-2 2zm-32.47-4h30.47v-30.47h-30.47v30.47z"/><path class="st4" d="M127.141 192.081h-34.47a2 2 0 0 1-2-2v-34.47a2 2 0 0 1 2-2h34.47a2 2 0 0 1 2 2v34.47a2 2 0 0 1-2 2zm-32.47-4h30.47v-30.47h-30.47v30.47z"/><path class="st4" d="M161.611 192.081h-34.47a2 2 0 0 1-2-2v-34.47a2 2 0 0 1 2-2h34.47a2 2 0 0 1 2 2v34.47a2 2 0 0 1-2 2zm-32.469-4h30.47v-30.47h-30.47v30.47zM196.081 88.671h-34.47a2 2 0 0 1-2-2v-34.47a2 2 0 0 1 2-2h34.47a2 2 0 0 1 2 2v34.47a2 2 0 0 1-2 2zm-32.47-4h30.47v-30.47h-30.47v30.47z"/><path class="st4" d="M196.081 123.141h-34.47a2 2 0 0 1-2-2v-34.47a2 2 0 0 1 2-2h34.47a2 2 0 0 1 2 2v34.47a2 2 0 0 1-2 2zm-32.47-4h30.47v-30.47h-30.47v30.47z"/><path class="st4" d="M196.081 157.611h-34.47a2 2 0 0 1-2-2v-34.47a2 2 0 0 1 2-2h34.47a2 2 0 0 1 2 2v34.47a2 2 0 0 1-2 2zm-32.47-4h30.47v-30.47h-30.47v30.47zM58.201 88.671h-34.47a2 2 0 0 1-2-2v-34.47a2 2 0 0 1 2-2h34.47a2 2 0 0 1 2 2v34.47a2 2 0 0 1-2 2zm-32.47-4h30.47v-30.47h-30.47v30.47z"/><path class="st4" d="M58.201 123.141h-34.47a2 2 0 0 1-2-2v-34.47a2 2 0 0 1 2-2h34.47a2 2 0 0 1 2 2v34.47a2 2 0 0 1-2 2zm-32.47-4h30.47v-30.47h-30.47v30.47z"/><path class="st4" d="M58.201 157.611h-34.47a2 2 0 0 1-2-2v-34.47a2 2 0 0 1 2-2h34.47a2 2 0 0 1 2 2v34.47a2 2 0 0 1-2 2zm-32.47-4h30.47v-30.47h-30.47v30.47z"/><path class="st4" d="M189.814 192.081H29.999c-4.559 0-8.267-3.708-8.267-8.267V23.999c0-4.559 3.708-8.267 8.267-8.267h159.816c4.559 0 8.267 3.708 8.267 8.267v159.815c-.001 4.559-3.709 8.267-8.268 8.267zM29.999 19.731a4.272 4.272 0 0 0-4.267 4.267v159.815a4.272 4.272 0 0 0 4.267 4.267h159.816a4.272 4.272 0 0 0 4.267-4.267V23.999a4.272 4.272 0 0 0-4.267-4.267H29.999z"/><path class="st4" d="M193.668 201.656H26.156c-7.713 0-13.99-6.27-14-13.981V20.156c0-7.713 6.27-13.99 13.981-14h167.519c7.714 0 13.99 6.27 14 13.981v167.519c0 7.713-6.27 13.99-13.98 14h-.008zm-177.512-14c0 5.514 4.486 10 10 10h167.5c5.514 0 10-4.486 10-10v-167.5c0-5.514-4.486-10-10-10h-167.5c-5.514 0-10 4.486-10 10v167.5z"/><path class="st5" d="M176.427 136.682H117.76a6.167 6.167 0 1 1 0-12.334h58.667a6.167 6.167 0 0 1 6.167 6.167 6.166 6.166 0 0 1-6.167 6.167z"/><path class="st3" d="M171.594 149.016h-49a3 3 0 0 1-3-3v-9.333h55v9.333a3 3 0 0 1-3 3z"/><path class="st5" d="M105.76 235.51h82.667a6.167 6.167 0 1 1 0 12.334H105.76a6.168 6.168 0 0 1 0-12.334z"/><path class="st3" d="M113.298 223.177h67.592a3 3 0 0 1 3 3v9.333h-73.592v-9.333a3 3 0 0 1 3-3z"/><path class="st5" d="M168.881 149.016h-43.575a622.618 622.618 0 0 1-6.212 74.161h56a622.564 622.564 0 0 1-6.213-74.161z"/><path class="st3" d="m155.275 105.082-5.464-11.677c-1.078-2.305-4.356-2.305-5.434 0l-5.464 11.677a2 2 0 0 1-3.304.483l-10.775-12.088c-1.834-2.058-5.239-.76-5.239 1.996v28.876h55V95.473c0-2.757-3.405-4.054-5.239-1.996l-10.775 12.088a2.001 2.001 0 0 1-3.306-.483z"/><path class="st4" d="M176.427 138.683H117.76c-4.503 0-8.167-3.664-8.167-8.167s3.664-8.167 8.167-8.167h58.667c4.503 0 8.167 3.664 8.167 8.167s-3.664 8.167-8.167 8.167zm-58.667-12.334a4.172 4.172 0 0 0-4.167 4.167 4.171 4.171 0 0 0 4.167 4.167h58.667a4.171 4.171 0 0 0 4.167-4.167 4.172 4.172 0 0 0-4.167-4.167H117.76z"/><path class="st4" d="M171.594 151.016h-49c-2.757 0-5-2.243-5-5v-9.333a2 2 0 0 1 2-2h55a2 2 0 0 1 2 2v9.333c0 2.756-2.243 5-5 5zm-50-12.333v7.333c0 .551.449 1 1 1h49c.552 0 1-.449 1-1v-7.333h-51zM188.427 249.844H105.76c-4.503 0-8.167-3.664-8.167-8.167s3.664-8.167 8.167-8.167h82.667c4.503 0 8.167 3.664 8.167 8.167s-3.664 8.167-8.167 8.167zM105.76 237.51a4.172 4.172 0 0 0-4.167 4.167 4.172 4.172 0 0 0 4.167 4.167h82.667a4.171 4.171 0 0 0 4.167-4.167 4.171 4.171 0 0 0-4.167-4.167H105.76z"/><path class="st4" d="M183.89 237.51h-73.592a2 2 0 0 1-2-2v-9.333c0-2.757 2.243-5 5-5h67.592c2.757 0 5 2.243 5 5v9.333a2 2 0 0 1-2 2zm-71.592-4h69.592v-7.333c0-.551-.448-1-1-1h-67.592c-.551 0-1 .449-1 1v7.333z"/><path class="st4" d="M175.094 225.177h-56a2 2 0 0 1-1.98-2.286 622.873 622.873 0 0 0 6.192-73.923 2 2 0 0 1 2-1.953h43.576a2 2 0 0 1 1.999 1.953 622.68 622.68 0 0 0 6.192 73.923 1.998 1.998 0 0 1-1.979 2.286zm-53.695-4h51.389a626.886 626.886 0 0 1-5.856-70.162h-39.676a627.065 627.065 0 0 1-5.857 70.162zM174.594 126.349h-55a2 2 0 0 1-2-2V95.473a4.963 4.963 0 0 1 3.22-4.672 4.965 4.965 0 0 1 5.513 1.346l10.775 12.087 5.464-11.676c.831-1.777 2.566-2.881 4.528-2.881s3.697 1.104 4.528 2.881l5.465 11.677.004.007 10.771-12.095a4.965 4.965 0 0 1 5.513-1.346 4.964 4.964 0 0 1 3.22 4.663v28.885a2.002 2.002 0 0 1-2.001 2zm-53-4h51V95.473c0-.622-.45-.86-.644-.935-.196-.074-.688-.196-1.103.269l-10.774 12.088a3.972 3.972 0 0 1-3.565 1.296 3.99 3.99 0 0 1-3.044-2.262l-5.465-11.677c-.243-.52-.714-.576-.905-.576s-.662.056-.905.576l-5.465 11.677a3.988 3.988 0 0 1-3.045 2.263 3.989 3.989 0 0 1-3.563-1.297L123.34 94.808c-.414-.464-.908-.344-1.102-.27s-.644.313-.644.935v26.876z"/><path class="st3" d="M227.739 175.513H182.19a4.788 4.788 0 0 1 0-9.576h45.549a4.788 4.788 0 1 1 0 9.576zM223.987 185.089h-38.044a2.33 2.33 0 0 1-2.329-2.329v-7.246h42.702v7.246a2.33 2.33 0 0 1-2.329 2.329zM172.874 238.268h64.182a4.788 4.788 0 0 1 0 9.576h-64.182a4.788 4.788 0 1 1 0-9.576z"/><path class="st3" d="M178.726 228.693h52.478a2.33 2.33 0 0 1 2.329 2.329v7.246h-57.136v-7.246a2.328 2.328 0 0 1 2.329-2.329zM221.121 165.938h-32.609v-3.52a2.589 2.589 0 0 1 2.589-2.589h27.431a2.589 2.589 0 0 1 2.589 2.589v3.52z"/><path class="st5" d="M188.445 185.089a510.125 510.125 0 0 1-4.055 43.604h41.149a509.683 509.683 0 0 1-4.055-43.604h-33.039z"/><path class="st4" d="M221.121 167.938h-32.608a2 2 0 0 1-2-2v-3.521a4.595 4.595 0 0 1 4.589-4.589h27.431a4.595 4.595 0 0 1 4.589 4.589v3.521a2.002 2.002 0 0 1-2.001 2zm-30.608-4h28.608v-1.521a.59.59 0 0 0-.589-.589h-27.431a.59.59 0 0 0-.589.589v1.521z"/><path class="st4" d="M227.739 177.513H182.19c-3.743 0-6.788-3.045-6.788-6.788s3.045-6.788 6.788-6.788h45.549c3.743 0 6.788 3.045 6.788 6.788s-3.045 6.788-6.788 6.788zm-45.549-9.575c-1.537 0-2.788 1.25-2.788 2.788s1.251 2.788 2.788 2.788h45.549c1.537 0 2.788-1.25 2.788-2.788s-1.251-2.788-2.788-2.788H182.19z"/><path class="st4" d="M223.986 187.089h-38.043a4.334 4.334 0 0 1-4.329-4.329v-7.247a2 2 0 0 1 2-2h42.701a2 2 0 0 1 2 2v7.247a4.334 4.334 0 0 1-4.329 4.329zm-38.372-9.576v5.247c0 .182.147.329.329.329h38.043a.329.329 0 0 0 .329-.329v-5.247h-38.701zM237.056 249.844h-64.182a6.796 6.796 0 0 1-6.788-6.788 6.796 6.796 0 0 1 6.788-6.788h64.182a6.796 6.796 0 0 1 6.788 6.788 6.796 6.796 0 0 1-6.788 6.788zm-64.182-9.576a2.79 2.79 0 0 0-2.788 2.788 2.792 2.792 0 0 0 2.788 2.788h64.182a2.79 2.79 0 0 0 2.788-2.788 2.79 2.79 0 0 0-2.788-2.788h-64.182z"/><path class="st4" d="M233.533 240.268h-57.137a2 2 0 0 1-2-2v-7.246a4.335 4.335 0 0 1 4.329-4.33h52.479a4.334 4.334 0 0 1 4.329 4.33v7.246a2 2 0 0 1-2 2zm-55.137-4h53.137v-5.246a.33.33 0 0 0-.329-.33h-52.479a.33.33 0 0 0-.329.33v5.246z"/><path class="st4" d="M225.539 230.693h-41.148a2 2 0 0 1-1.982-2.271 510.02 510.02 0 0 0 4.039-43.433 2 2 0 0 1 1.997-1.9h33.039a2 2 0 0 1 1.997 1.9 510.058 510.058 0 0 0 4.039 43.433 2 2 0 0 1-1.981 2.271zm-38.861-4h36.574a514.423 514.423 0 0 1-3.667-39.604h-29.24a514.923 514.923 0 0 1-3.667 39.604z"/><path class="st5" d="M218.765 159.852c10.995-11.97 2.527-31.425-13.801-31.425-16.295 0-24.801 19.408-13.822 31.402.403 0 27.222-.013 27.623.023z"/><path class="st4" d="m218.766 161.852-.106-.003c-.714-.02-11.093-.027-27.147-.021h-.369a2.003 2.003 0 0 1-1.476-.649c-5.629-6.149-7.034-14.72-3.666-22.368 3.363-7.639 10.63-12.384 18.964-12.384 8.34 0 15.607 4.75 18.966 12.395 3.366 7.662 1.951 16.239-3.692 22.383a2.006 2.006 0 0 1-1.474.647zm-16.694-4.026c10.231 0 14.213.009 15.793.018 4.072-4.901 5.004-11.495 2.403-17.414-2.711-6.17-8.574-10.003-15.304-10.003-6.725 0-12.589 3.83-15.304 9.996-2.602 5.909-1.676 12.5 2.391 17.405l10.021-.002z"/></svg>